<svg id="Capa_1" data-name="Capa 1" xmlns="http://www.w3.org/2000/svg" viewBox="0 0 807.25 1078.92"><defs><style>.cls-1{fill:#298393;}.cls-2{fill:#3bccab;}</style></defs><path class="cls-1" d="M1054.83,1079.88V917.51c0-6.41,0-6.4,6.31-6.43,1.45,0,2.9-.1,4.35-.15,7.25.05,14.49.16,21.74.15l102.43-.15c4.85.05,9.7,0,14.54.2,2.41.1,3.19-.84,2.94-3.09a25.47,25.47,0,0,1,0-2.9q0-226.5.11-453c0-4.55-.88-5.87-5.69-5.85-47.2.21-94.41.06-141.61.25-4.41,0-5.21-1.22-5.2-5.35q.21-81,0-162c0-4.31.93-5.58,5.45-5.57q157.86.21,315.73.11,0,400.71.09,801.41c0,3.71-.44,4.84-4.6,4.83Q1213.12,1079.76,1054.83,1079.88Z" transform="translate(-568.75 -1.08)"/><path class="cls-2" d="M568.84,278.61c4.28-5.17,10.18-3.86,15.7-3.86q147.68,0,295.33,0c7.14,0,7.14,0,7.14,7.08,0,52.86-.06,105.72.11,158.58,0,4.66-.8,6.2-5.93,6.17-45.74-.24-91.49-.07-137.23-.26-4.6,0-5.45,1.38-5.45,5.64q.15,226.71,0,453.43c0,4.63,1,5.85,5.76,5.83,45.75-.2,91.49-.07,137.24-.21,4.26,0,5.65.85,5.64,5.45-.18,54.47-.12,109-.12,163.43q-156.82,0-313.67.12c-4.15,0-4.59-1.12-4.59-4.83Q568.9,676.89,568.84,278.61Z" transform="translate(-568.75 -1.08)"/><path class="cls-1" d="M1375.91,178.69q-82.9,0-165.81.1c-4,0-5-1-5-5q.23-86.3.1-172.6,83.43,0,166.85-.09c3.32,0,4,.65,4,4Q1375.8,91.87,1375.91,178.69Z" transform="translate(-568.75 -1.08)"/></svg>